<svg width="15" height="15" viewBox="0 0 15 15" fill="none" xmlns="http://www.w3.org/2000/svg">
<path d="M14.4801 4.12868L14.4818 4.14935L14.4847 4.16642L14.4847 4.16674L14.4861 4.17692C14.4875 4.18852 14.4898 4.20929 14.4921 4.23905C14.4967 4.29855 14.5015 4.39405 14.4996 4.52402C14.4958 4.78342 14.4657 5.18111 14.355 5.70502C14.0441 7.10565 13.2646 8.27419 12.3 9.24155L12.2999 9.24146L12.2922 9.24955L7.5 14.2754L2.70778 9.24955L2.70779 9.24955L2.70572 9.2474C1.73219 8.23853 0.955125 7.10214 0.644951 5.70497C0.534305 5.18109 0.50417 4.78341 0.500421 4.52402C0.498543 4.39405 0.503287 4.29855 0.507915 4.23905C0.51023 4.20929 0.512518 4.18852 0.513939 4.17692L0.515272 4.16674L0.518163 4.14935L0.519857 4.12868C0.613255 2.98906 1.01443 2.08151 1.60412 1.46457C2.1896 0.852028 2.98432 0.5 3.9292 0.5C4.64354 0.5 5.24078 0.659109 5.74424 0.967072C6.24894 1.27579 6.68976 1.7527 7.06076 2.43484L7.50939 3.25969L7.94339 2.42705C8.2972 1.74824 8.72865 1.27364 9.22763 0.966242C9.72593 0.659261 10.3224 0.5 11.0371 0.5C12.8824 0.5 14.2949 1.86851 14.4801 4.12868ZM0.515319 4.16637L0.515315 4.16642L0.515319 4.16637Z" fill="#E26267" stroke="#313131"/>
</svg>
