<svg width="90" height="90" viewBox="0 0 90 90" fill="none" xmlns="http://www.w3.org/2000/svg">
<g clip-path="url(#clip0)">
<path d="M90 0H0V90H90V0Z" fill="url(#paint0_linear)"/>
<path d="M66.177 20.313V22.041C66.1406 22.1039 66.1105 22.1702 66.087 22.239C65.961 22.491 65.754 22.905 65.709 23.031C65.664 23.157 65.061 24.372 65.061 24.372V24.597V24.948L65.484 25.758L65.664 26.46C65.669 26.4807 65.669 26.5023 65.664 26.523L65.7 27.9V28.584L65.313 29.763C65.3156 29.7989 65.3156 29.835 65.313 29.871L63.873 33.021L63.648 33.507C63.648 33.552 63.648 33.597 63.648 33.642C63.6523 33.6778 63.6523 33.7141 63.648 33.75L63.333 35.46V35.586L62.604 37.908V37.989V38.088L61.488 40.374C61.474 40.4136 61.4526 40.4503 61.425 40.482L60.174 42.282L60.12 42.372L59.823 43.2L59.4 45.297V45.45L58.959 47.439L58.059 49.689L57.645 50.49L57.546 50.706L57.285 53.172L56.322 56.835L55.026 59.958L54.963 60.075L52.614 63.765L50.202 66.276L44.541 69.822L41.31 71.244L38.187 72.144H38.097L36.567 72.594L36.243 72.765L35.685 73.071L35.055 73.413L34.722 73.584L34.362 73.782H34.299L30.924 75.321H30.861L21.672 79.614L19.359 80.739L18.459 81.171L17.1 81.837L15.723 82.512L11.511 84.6L0 89.685V66.087L6.12 64.8L16.02 62.1L24.894 58.752L25.038 58.689L30.375 55.638L31.545 53.766L36.486 49.689L40.392 45.738L43.092 41.949L44.892 38.205L45 37.998C45 37.998 45 37.944 45 37.917L46.035 36L47.07 34.767C47.1052 34.7363 47.1383 34.7032 47.169 34.668C47.259 34.569 47.349 34.443 47.439 34.335L49.023 31.635L50.283 27.594L50.571 25.434V23.958L51.147 22.851L51.984 22.626L53.1 22.86L53.766 23.31L54.432 25.047V25.101L55.152 23.4C55.152 23.346 55.152 23.292 55.224 23.229L56.862 19.062C56.862 18.954 56.943 18.855 56.979 18.756L58.5 13.851V13.725L58.815 11.772V10.44L58.932 10.215L59.328 9.44998L60.462 9.16198H60.57L60.678 9.24298L61.335 9.71098L61.686 9.82798L62.199 8.30698L63.432 8.00098H63.477L64.719 8.52298L65.385 9.48598L65.7 10.854L65.781 13.5V13.968L65.7 14.4L65.403 16.569L65.25 17.244L65.673 18.414L66.177 20.313Z" fill="#F0F3EE"/>
<path d="M30.375 55.701C28.697 56.8853 26.9099 57.9069 25.038 58.752L24.894 58.815C22.0108 60.1201 19.0467 61.2384 16.02 62.163C12.807 63.162 9.441 64.062 6.12 64.863C4.032 65.367 1.971 65.763 0 66.204" stroke="#4F4F4F" stroke-width="0.4" stroke-miterlimit="10"/>
<path d="M30.177 56.979C30.1686 56.4278 30.2702 55.8805 30.4757 55.369C30.6812 54.8575 30.9866 54.3921 31.374 54C33.2131 52.2584 35.1708 50.6466 37.233 49.176C37.233 49.176 41.535 44.847 42.723 42.714C43.911 40.581 45.423 36.864 46.035 35.982C46.8858 35.0427 47.665 34.0408 48.366 32.985C49.095 31.671 50.832 27.378 50.544 24.777C50.544 24.777 50.382 23.364 51.156 22.833C51.6201 22.619 52.1421 22.5647 52.6404 22.6787C53.1386 22.7926 53.5851 23.0684 53.91 23.463C54.252 24.156 55.98 28.863 54.675 32.355C54.0164 34.211 53.0151 35.9267 51.723 37.413C51.6132 37.5352 51.5468 37.6902 51.534 37.854C51.4414 39.6184 50.8892 41.3279 49.932 42.813C49.8335 42.939 49.762 43.0839 49.7217 43.2387C49.6815 43.3935 49.6734 43.5549 49.698 43.713C49.851 45.036 49.869 48.672 46.098 52.11" stroke="#4F4F4F" stroke-width="0.4" stroke-miterlimit="10"/>
<path d="M48.6 48.978C48.6 48.978 50.787 56.97 45.36 62.19C39.933 67.41 36.72 66.834 36.72 66.834" stroke="#4F4F4F" stroke-width="0.4" stroke-miterlimit="10"/>
<path d="M54.45 24.993C54.45 24.993 58.401 16.371 58.797 11.772C58.8016 11.1686 58.8558 10.5666 58.959 9.97202C59.13 9.17102 61.047 8.32502 62.019 10.872C62.991 13.419 62.163 17.082 62.163 17.082C61.7895 18.5894 61.2491 20.0504 60.552 21.438C60.552 21.438 60.183 28.512 56.304 30.258" stroke="#4F4F4F" stroke-width="0.4" stroke-miterlimit="10"/>
<path d="M57.537 29.448C57.5806 33.9287 55.8909 38.2529 52.821 41.517" stroke="#4F4F4F" stroke-width="0.4" stroke-miterlimit="10"/>
<path d="M58.6531 22.032C59.341 22.0779 60.0204 21.859 60.5521 21.42" stroke="#4F4F4F" stroke-width="0.4" stroke-miterlimit="10"/>
<path d="M61.6589 10.116C61.6589 10.116 61.7579 8.62201 62.2799 8.23501C62.8019 7.84801 65.3939 7.45201 65.7089 10.845C66.0239 14.238 65.5559 20.916 61.9199 21.546" stroke="#4F4F4F" stroke-width="0.4" stroke-miterlimit="10"/>
<path d="M63.3239 20.898C63.3239 20.898 64.3049 27.612 58.7339 29.898" stroke="#4F4F4F" stroke-width="0.4" stroke-miterlimit="10"/>
<path d="M61.0199 28.512C61.0199 28.512 58.9049 39.6 54.8999 42.687" stroke="#4F4F4F" stroke-width="0.4" stroke-miterlimit="10"/>
<path d="M56.4839 43.551C59.3944 40.5977 61.3509 36.8383 62.0999 32.76C62.1246 32.5747 62.2064 32.4017 62.3339 32.265C64.6379 29.493 64.3139 25.398 64.3139 25.398C67.8239 22.167 65.3309 17.046 65.3309 17.046" stroke="#4F4F4F" stroke-width="0.4" stroke-miterlimit="10"/>
<path d="M64.8899 24.804C64.8899 24.804 67.3379 27.162 63.7469 33.246C63.6642 33.3833 63.612 33.5368 63.5939 33.696C63.1794 37.0078 61.8238 40.1313 59.6879 42.696C59.6879 42.696 59.4449 47.862 57.6539 50.337C57.6539 50.337 57.1499 62.28 47.9789 67.914C38.8079 73.548 34.8569 72.324 34.8569 72.324" stroke="#4F4F4F" stroke-width="0.4" stroke-miterlimit="10"/>
<path d="M37.089 72.369C37.089 72.369 34.578 73.8 33.156 74.466C31.734 75.132 29.7 75.78 26.514 77.274C23.328 78.768 5.499 87.507 5.499 87.507C5.499 87.507 3.438 88.416 0 89.73" stroke="#4F4F4F" stroke-width="0.4" stroke-miterlimit="10"/>
<path d="M37.5029 70.83C36.5139 71.0088 35.4936 70.87 34.5883 70.4335C33.683 69.997 32.939 69.2852 32.4629 68.4C31.0769 65.871 31.6169 64.44 31.7699 63C31.9541 62.0336 32.0146 61.0477 31.9499 60.066" stroke="#4F4F4F" stroke-width="0.4" stroke-miterlimit="10"/>
<path d="M32.886 71.766C31.869 71.937 30.006 69.696 29.745 68.004C29.6726 66.4867 29.8428 64.9676 30.249 63.504C30.249 63.504 31.275 60.651 30.141 59.751" stroke="#4F4F4F" stroke-width="0.4" stroke-miterlimit="10"/>
<path d="M51.3 41.274C51.9795 41.1996 52.6648 41.347 53.2536 41.6941C53.8424 42.0413 54.3031 42.5695 54.5671 43.2C55.7461 45.495 56.295 46.476 56.313 48.78" stroke="#4F4F4F" stroke-width="0.4" stroke-miterlimit="10"/>
<path d="M51.777 44.172C51.777 44.172 54.18 49.104 49.9771 56.16" stroke="#4F4F4F" stroke-width="0.4" stroke-miterlimit="10"/>
<path d="M53.9189 42.237C55.2957 42.8042 56.591 43.5518 57.7709 44.46" stroke="#4F4F4F" stroke-width="0.4" stroke-miterlimit="10"/>
<path d="M53.406 44.37C54.2218 46.3128 54.4106 48.4618 53.946 50.517" stroke="#4F4F4F" stroke-width="0.4" stroke-miterlimit="10"/>
</g>
<defs>
<linearGradient id="paint0_linear" x1="44.694" y1="191.394" x2="45.351" y2="-122.958" gradientUnits="userSpaceOnUse">
<stop stop-color="#EEF4E2"/>
<stop offset="0.27" stop-color="#ECF2E0"/>
<stop offset="0.37" stop-color="#E6EBDB"/>
<stop offset="0.44" stop-color="#DCE0D1"/>
<stop offset="0.49" stop-color="#CECFC3"/>
<stop offset="0.54" stop-color="#BBB9B0"/>
<stop offset="0.58" stop-color="#A39E9A"/>
<stop offset="0.61" stop-color="#938B8A"/>
</linearGradient>
<clipPath id="clip0">
<rect width="90" height="90" fill="white"/>
</clipPath>
</defs>
</svg>
