<svg width="90" height="90" viewBox="0 0 90 90" fill="none" xmlns="http://www.w3.org/2000/svg">
<g clip-path="url(#clip0)">
<path d="M90 0H0V90H90V0Z" fill="url(#paint0_linear)"/>
<path d="M60.651 37.719C60.525 30.753 58.239 27.54 58.239 27.54C58.239 27.54 54.774 22.851 53.559 20.979C52.5974 19.2102 51.8222 17.3461 51.246 15.417C51.0219 15.0403 50.688 14.741 50.2891 14.5592C49.8902 14.3775 49.4453 14.3219 49.014 14.4C47.7 14.823 47.7 18 47.7 18L42.453 16.047C41.9959 15.8688 41.4966 15.8283 41.0167 15.9307C40.5369 16.033 40.0975 16.2737 39.753 16.623L33.777 22.5C33.3674 22.9102 33.0428 23.3972 32.8219 23.9331C32.6011 24.4691 32.4883 25.0434 32.49 25.623V33.579C32.49 37.764 35.28 41.967 36.675 51.75C36.922 53.8854 37.5758 55.9537 38.601 57.843C38.337 58.587 38.058 59.325 37.764 60.057C37.332 61.155 36.864 62.244 36.36 63.324L35.856 64.395C35.757 64.602 35.649 64.818 35.541 65.025C35.379 65.367 35.208 65.7 35.028 66.042C32.6883 70.5086 29.9789 74.7715 26.928 78.786L26.19 79.749C25.704 80.388 25.209 81.018 24.714 81.63C24.48 81.945 24.219 82.251 23.976 82.53L23.175 83.493C22.698 84.069 22.23 84.627 21.744 85.176C20.874 86.244 20.001 87.252 19.125 88.2L18.135 89.253L17.433 90H45.612C45.6485 89.8929 45.6906 89.7878 45.738 89.685L46.359 88.2C46.71 87.354 47.043 86.517 47.367 85.698C47.52 85.32 47.673 84.951 47.817 84.582L48.357 83.178C48.447 82.944 48.528 82.719 48.627 82.494C48.906 81.756 49.176 81.027 49.437 80.316C49.599 79.893 49.752 79.416 49.905 79.047C50.058 78.678 50.193 78.273 50.328 77.895C50.463 77.517 50.625 77.076 50.769 76.662C50.7651 76.6442 50.7651 76.6258 50.769 76.608C51.048 75.825 51.309 75.06 51.561 74.322C51.813 73.584 52.056 72.873 52.272 72.189C52.344 72 52.398 71.802 52.47 71.613L52.947 70.137C53.037 69.858 53.127 69.588 53.199 69.327C53.271 69.066 53.388 68.733 53.478 68.427C53.694 67.737 53.892 67.089 54.072 66.483L54.171 66.141C54.414 65.34 54.612 64.647 54.765 64.08C54.8127 64.0221 54.8577 63.962 54.9 63.9C54.963 63.702 55.008 63.513 55.062 63.342C55.116 63.171 55.062 63.216 55.116 63.153C55.215 62.784 55.287 62.532 55.314 62.388C55.341 62.244 55.314 62.388 55.314 62.334C55.3111 62.3101 55.3111 62.2859 55.314 62.262C55.314 62.262 57.6 59.535 59.319 52.2C61.038 44.865 60.786 44.676 60.651 37.719ZM49.014 23.625C48.8569 23.5603 48.6888 23.5267 48.519 23.526H44.019C43.7887 23.5238 43.56 23.5634 43.344 23.643C41.5632 24.55 39.9598 25.7694 38.61 27.243L38.412 26.1C38.3806 25.8766 38.3981 25.649 38.4634 25.4329C38.5286 25.2169 38.6401 25.0177 38.79 24.849L41.715 21.6C41.8775 21.419 42.0883 21.2881 42.3227 21.2227C42.5571 21.1573 42.8052 21.1602 43.038 21.231C44.7695 21.767 46.5472 22.1406 48.348 22.347H48.222L49.014 23.517V23.625Z" fill="#F0F3EE"/>
<path d="M17.424 90C24.903 82.17 34.0739 70.695 38.6009 57.861" stroke="#4F4F4F" stroke-width="0.4" stroke-miterlimit="10"/>
<path d="M43.6681 61.56C43.6681 61.56 38.0791 61.56 36.6841 51.768C35.2891 41.976 32.4901 37.8 32.4901 33.597V25.632C32.4867 25.0508 32.5987 24.4746 32.8196 23.937C33.0405 23.3994 33.366 22.9109 33.7771 22.5L39.7171 16.56C40.0632 16.2131 40.502 15.9734 40.9809 15.8696C41.4598 15.7659 41.9584 15.8025 42.4171 15.975L51.3001 19.314C51.5471 19.4076 51.7491 19.592 51.8645 19.8296C51.98 20.0672 52.0002 20.34 51.9211 20.592C51.7546 21.1454 51.4044 21.6254 50.9282 21.9527C50.4519 22.28 49.8783 22.4349 49.3021 22.392C47.186 22.2641 45.094 21.8742 43.0741 21.231C42.8411 21.1624 42.5936 21.1606 42.3597 21.2258C42.1257 21.2911 41.9149 21.4207 41.7511 21.6L38.7901 24.822C38.6324 24.9913 38.5163 25.1948 38.4507 25.4165C38.3851 25.6383 38.3719 25.8723 38.4121 26.1L38.6011 27.306" stroke="#4F4F4F" stroke-width="0.4" stroke-miterlimit="10"/>
<path d="M50.967 27.738C51.0937 27.2302 51.175 26.7122 51.21 26.19C51.2258 26.0238 51.2032 25.8562 51.1439 25.7002C51.0846 25.5441 50.9902 25.4038 50.868 25.29L49.365 23.85C49.2535 23.7401 49.1214 23.6532 48.9762 23.5946C48.831 23.5359 48.6756 23.5065 48.519 23.508H44.019C43.7879 23.5044 43.5584 23.5473 43.344 23.634C39.663 25.164 34.92 31.536 34.92 31.536" stroke="#4F4F4F" stroke-width="0.4" stroke-miterlimit="10"/>
<path d="M38.601 34.371C38.601 34.371 42.651 28.881 44.262 27.873C45.873 26.865 49.455 26.874 51.246 27.873C53.037 28.872 54.099 32.562 54.099 32.562C54.2446 33.1744 54.1479 33.8193 53.829 34.362" stroke="#4F4F4F" stroke-width="0.4" stroke-miterlimit="10"/>
<path d="M42.3 36.576C42.3 36.576 45.495 32.364 46.899 31.554C46.899 31.554 49.104 30.555 50.58 31.554C51.7402 32.4396 52.8213 33.4243 53.8111 34.497C54.0543 34.7587 54.1893 35.1027 54.189 35.46V38.853C54.189 38.853 53.127 39.933 52.083 38.484C51.6371 37.9767 51.3465 37.3519 51.246 36.684C51.2465 36.6358 51.2294 36.5892 51.1979 36.5527C51.1664 36.5163 51.1228 36.4926 51.075 36.486C50.2532 36.4163 49.4821 36.0595 48.8971 35.478C48.8823 35.4476 48.8593 35.4219 48.8306 35.4039C48.802 35.386 48.7689 35.3764 48.7351 35.3764C48.7012 35.3764 48.6681 35.386 48.6395 35.4039C48.6108 35.4219 48.5878 35.4476 48.5731 35.478L47.43 38.448C49.174 39.4188 50.6469 40.8112 51.714 42.498C52.0963 43.2606 52.3719 44.0722 52.533 44.91C52.9967 47.1729 52.8822 49.5161 52.2 51.723C52.0129 52.4315 51.7087 53.1037 51.3 53.712" stroke="#4F4F4F" stroke-width="0.4" stroke-miterlimit="10"/>
<path d="M47.7 18C47.7 18 47.7 14.859 49.059 14.463C50.418 14.067 51.291 15.453 51.291 15.453C51.863 17.3836 52.6384 19.2481 53.604 21.015C54.81 22.896 58.293 27.576 58.293 27.576C58.293 27.576 60.57 30.789 60.705 37.755C60.84 44.721 61.101 44.847 59.364 52.209C57.627 59.571 55.35 62.244 55.35 62.244C52.7229 71.7028 49.4667 80.9754 45.603 90" stroke="#4F4F4F" stroke-width="0.4" stroke-miterlimit="10"/>
<path d="M48.222 22.356L49.014 23.625" stroke="#4F4F4F" stroke-width="0.4" stroke-miterlimit="10"/>
</g>
<defs>
<linearGradient id="paint0_linear" x1="45" y1="197.604" x2="45" y2="-125.208" gradientUnits="userSpaceOnUse">
<stop stop-color="#F0F3EE"/>
<stop offset="0.27" stop-color="#EEF1ED"/>
<stop offset="0.37" stop-color="#E8EAE8"/>
<stop offset="0.44" stop-color="#DDDFDF"/>
<stop offset="0.5" stop-color="#CECED3"/>
<stop offset="0.55" stop-color="#BAB8C4"/>
<stop offset="0.59" stop-color="#A29DB1"/>
<stop offset="0.61" stop-color="#9791A8"/>
</linearGradient>
<clipPath id="clip0">
<rect width="90" height="90" fill="white"/>
</clipPath>
</defs>
</svg>
