<svg width="90" height="90" viewBox="0 0 90 90" fill="none" xmlns="http://www.w3.org/2000/svg">
<g clip-path="url(#clip0)">
<path d="M90 0H0V90H90V0Z" fill="url(#paint0_linear)"/>
<path d="M0 59.706L8.1 49.131L18.522 36.531L22.941 32.031L26.1 29.259L32.319 25.866L38.835 23.841L45.513 22.59L54.9 21.366L62.685 21.231L66.492 21.519L69.471 23.022L73.971 25.866L77.076 28.845L79.875 32.445L83.169 36.252V36.765L82.53 37.377L80.73 37.503L78.3 36.234L75.942 34.317L73.899 32.094L72.756 30.654L68.562 28.611L64.962 26.37L59.895 27.693L63.252 30.528L66.564 31.365L67.23 31.599L67.491 32.175L67.329 32.895L66.861 33.669L70.857 37.548L75.762 41.94L79.803 51.462L79.506 52.056L78.012 52.2L75.852 51.237L73.863 48.96L71.739 44.46L68.562 43.029L66.483 40.869L65.583 40.095L65.979 41.841V43.56L65.169 45.45L64.386 46.8L64.071 48.339L62.811 50.4L61.578 51.921L60.102 53.721L59.301 53.955L57.6 53.523L52.992 52.911L53.118 51.93L53.649 50.787L55.8 50.256L57.222 50.337H58.041L59.103 47.934V47.241L56.655 45.441L54.45 43.551L53.721 43.074L51.804 42.894L49.887 42.408L49.149 43.074L44.325 45L39.357 45.765L34.65 45.36L34.101 45.567L32.013 47.295L30.114 49.347L27 54.225L23.931 59.4L19.593 67.14L16.38 73.197L12.879 79.866L9.54 86.292L7.632 90H0V59.706Z" fill="#F0F3EE"/>
<path d="M59.877 27.72C59.607 27.72 63.297 26.748 64.566 26.415C64.6968 26.3775 64.8344 26.3702 64.9685 26.3936C65.1026 26.4169 65.2296 26.4704 65.34 26.55C67.7934 28.1568 70.3728 29.5624 73.053 30.753C73.1753 30.8011 73.2771 30.8901 73.341 31.005C74.6431 33.0532 76.3048 34.8491 78.246 36.306C80.775 38.241 82.377 37.539 83.07 37.008C83.1251 36.9635 83.1707 36.9086 83.2042 36.8463C83.2377 36.7839 83.2584 36.7156 83.2651 36.6451C83.2718 36.5747 83.2644 36.5037 83.2432 36.4361C83.2221 36.3686 83.1877 36.306 83.142 36.252L76.617 28.314C73.242 25.002 67.428 21.681 66.501 21.519C65.574 21.357 60.147 21.087 60.147 21.087C60.147 21.087 53.46 20.979 40.5 23.481C27.54 25.983 23.22 31.851 23.22 31.851C18.162 36.072 7.551 49.671 0 59.706" stroke="#4F4F4F" stroke-width="0.4" stroke-miterlimit="10"/>
<path d="M56.5559 32.175L65.6999 39.672C66.3376 40.8325 67.2 41.8543 68.2369 42.6779C69.2737 43.5015 70.4642 44.1104 71.7389 44.469C71.7389 44.469 73.6649 49.248 75.9419 51.156C76.4309 51.5751 77.0108 51.8747 77.6357 52.0309C78.2605 52.1871 78.9132 52.1957 79.5419 52.056C79.6036 52.0415 79.6614 52.0136 79.7111 51.9743C79.7608 51.935 79.8013 51.8853 79.8296 51.8286C79.858 51.7719 79.8735 51.7097 79.8751 51.6463C79.8767 51.583 79.8644 51.52 79.8389 51.462L75.7709 41.94C75.7709 41.94 69.4709 36.468 68.0849 34.839C66.6989 33.21 57.4289 25.839 57.4289 25.839" stroke="#4F4F4F" stroke-width="0.4" stroke-miterlimit="10"/>
<path d="M65.7 39.672C65.7 39.672 66.348 42.498 65.97 43.965C65.6358 45.006 65.0973 45.9698 64.386 46.8" stroke="#4F4F4F" stroke-width="0.4" stroke-miterlimit="10"/>
<path d="M56.5561 38.043C56.5561 38.043 63.4591 43.263 64.3861 46.413C64.4205 47.7251 63.9757 49.0049 63.1351 50.013L60.2371 53.613C60.1298 53.7448 59.9912 53.8476 59.834 53.912C59.6768 53.9765 59.506 54.0005 59.3371 53.982L53.3071 53.082C53.2363 53.0751 53.1707 53.0415 53.1239 52.988C53.0771 52.9345 53.0524 52.8651 53.0551 52.794C53.0337 52.3503 53.1382 51.9096 53.3563 51.5227C53.5744 51.1358 53.8974 50.8184 54.2881 50.607C55.1071 50.202 57.1231 50.292 57.7981 50.274C57.8633 50.2711 57.9262 50.249 57.979 50.2106C58.0318 50.1722 58.0722 50.1191 58.0951 50.058C58.3437 49.313 58.6854 48.6024 59.1121 47.943C59.1843 47.8552 59.2352 47.7519 59.2609 47.6411C59.2866 47.5304 59.2864 47.4152 59.2603 47.3046C59.2341 47.1939 59.1828 47.0908 59.1102 47.0033C59.0377 46.9158 58.9459 46.8462 58.8421 46.8C57.1122 45.8345 55.5326 44.6217 54.1531 43.2C54.1038 43.1439 54.0428 43.0995 53.9743 43.07C53.9058 43.0404 53.8316 43.0264 53.7571 43.029C52.2491 43.0715 50.7518 42.7634 49.3831 42.129" stroke="#4F4F4F" stroke-width="0.4" stroke-miterlimit="10"/>
<path d="M50.112 42.498C46.8448 44.4798 43.1298 45.6036 39.312 45.765C32.913 45.882 30.834 43.965 28.512 41.265" stroke="#4F4F4F" stroke-width="0.4" stroke-miterlimit="10"/>
<path d="M34.6501 45.36C34.6501 45.36 31.5091 46.089 29.1691 44.838C26.8291 43.587 25.5691 40.545 25.5691 40.545" stroke="#4F4F4F" stroke-width="0.4" stroke-miterlimit="10"/>
<path d="M34.3171 45.423C32.7332 46.5203 31.3174 47.8421 30.1141 49.347C28.2421 51.741 21.1141 64.35 21.1141 64.35C21.1141 64.35 13.9231 77.742 7.63208 90" stroke="#4F4F4F" stroke-width="0.4" stroke-miterlimit="10"/>
<path d="M56.5559 38.043C56.5559 38.043 62.1539 42.606 63.2429 44.514" stroke="#4F4F4F" stroke-width="0.4" stroke-miterlimit="10"/>
<path d="M56.5559 38.043C56.5559 38.043 62.1539 42.606 63.2429 44.514" stroke="#4F4F4F" stroke-width="0.4" stroke-miterlimit="10"/>
<path d="M63.261 30.528L66.978 31.428C67.1349 31.4659 67.2734 31.558 67.3689 31.6881C67.4644 31.8183 67.5109 31.978 67.5 32.139C67.4616 32.6931 67.24 33.2188 66.87 33.633" stroke="#4F4F4F" stroke-width="0.4" stroke-miterlimit="10"/>
</g>
<defs>
<linearGradient id="paint0_linear" x1="42.894" y1="188.658" x2="47.457" y2="-122.436" gradientUnits="userSpaceOnUse">
<stop stop-color="#F0F3EE"/>
<stop offset="0.25" stop-color="#F0F1EC"/>
<stop offset="0.35" stop-color="#EFEAE6"/>
<stop offset="0.41" stop-color="#EEDFDB"/>
<stop offset="0.46" stop-color="#ECCECB"/>
<stop offset="0.51" stop-color="#E9B8B7"/>
<stop offset="0.55" stop-color="#E69C9D"/>
<stop offset="0.59" stop-color="#E27D80"/>
<stop offset="0.61" stop-color="#DF6368"/>
</linearGradient>
<clipPath id="clip0">
<rect width="90" height="90" fill="white"/>
</clipPath>
</defs>
</svg>
